<?xml version="1.0" encoding="UTF-8" standalone="no"?>
<!-- Created with Inkscape (http://www.inkscape.org/) -->

<svg
   xmlns:dc="http://purl.org/dc/elements/1.1/"
   xmlns:cc="http://creativecommons.org/ns#"
   xmlns:rdf="http://www.w3.org/1999/02/22-rdf-syntax-ns#"
   xmlns:svg="http://www.w3.org/2000/svg"
   xmlns="http://www.w3.org/2000/svg"
   xmlns:sodipodi="http://sodipodi.sourceforge.net/DTD/sodipodi-0.dtd"
   xmlns:inkscape="http://www.inkscape.org/namespaces/inkscape"
   width="1000"
   height="1000"
   id="svg2"
   version="1.1"
   inkscape:version="0.48.3.1 r9886"
   sodipodi:docname="project.svg">
  <defs
     id="defs4" />
  <sodipodi:namedview
     id="base"
     pagecolor="#ffffff"
     bordercolor="#666666"
     borderopacity="1.0"
     inkscape:pageopacity="0.0"
     inkscape:pageshadow="2"
     inkscape:zoom="0.061871843"
     inkscape:cx="-3608.0152"
     inkscape:cy="-3443.2999"
     inkscape:document-units="px"
     inkscape:current-layer="layer1"
     showgrid="false"
     inkscape:showpageshadow="false"
     borderlayer="true"
     inkscape:window-width="1680"
     inkscape:window-height="952"
     inkscape:window-x="0"
     inkscape:window-y="25"
     inkscape:window-maximized="1"
     showguides="true"
     inkscape:guide-bbox="true" />
  <metadata
     id="metadata7">
    <rdf:RDF>
      <cc:Work
         rdf:about="">
        <dc:format>image/svg+xml</dc:format>
        <dc:type
           rdf:resource="http://purl.org/dc/dcmitype/StillImage" />
        <dc:title />
      </cc:Work>
    </rdf:RDF>
  </metadata>
  <g
     inkscape:label="Calque 1"
     inkscape:groupmode="layer"
     id="layer1"
     transform="translate(0,-52.362183)">
    <path
       sodipodi:type="arc"
       style="fill:#000000;fill-opacity:1;stroke:none"
       id="path2985"
       sodipodi:cx="610"
       sodipodi:cy="655.71429"
       sodipodi:rx="444.28571"
       sodipodi:ry="478.57144"
       d="m 1054.2857,655.71429 a 444.28571,478.57144 0 1 1 -888.57141,0 444.28571,478.57144 0 1 1 888.57141,0 z"
       transform="matrix(0.77105955,0,0,0.71581943,12.510829,105.84632)" />
    <path
       style="fill:#000000;fill-opacity:1;stroke:#ffffff;stroke-width:18;stroke-linecap:butt;stroke-linejoin:miter;stroke-miterlimit:4;stroke-opacity:1;stroke-dasharray:none"
       d="m 94.285715,600.93358 c 0,0 -34.975504,197.25131 17.142865,271.42861 53.70475,76.4352 257.14285,111.4286 257.14285,111.4286 L 440,955.21929 C 389.24508,929.51665 270.53807,893.44436 274.28572,772.36218 c 0,0 74.92737,-177.73762 39.99999,-185.7143 -48.46784,-11.06903 -74.28571,140 -74.28571,140 0,0 55.73273,-270.78318 20,-291.4285 -33.64207,-19.43739 -74.28571,271.4285 -74.28571,271.4285 0,0 85.23482,-295.44419 28.57143,-308.5714 -50.40214,-11.67666 -85.71429,288.5714 -85.71429,288.5714 0,0 69.57391,-269.83435 17.14286,-288.57141 C 82.731279,375.56849 94.285715,600.93358 94.285715,600.93358 z"
       id="path3793"
       inkscape:connector-curvature="0"
       sodipodi:nodetypes="cscccscscscsc" />
    <path
       style="fill:#000000;fill-opacity:1;stroke:#ffffff;stroke-width:16.10000038;stroke-miterlimit:4;stroke-opacity:1;stroke-dasharray:none"
       d="m 445.71429,1049.505 111.42857,-94.28569 c 0,0 -54.50425,-117.51865 -42.85714,-177.14287 C 521.4812,741.24113 580,686.64794 580,686.64794 c 0,0 35.46342,95.83027 34.28572,145.7142 -0.65458,27.72602 -22.85714,79.99997 -22.85714,79.99997 l 85.71429,-79.99994 c 0,0 -70.35528,-117.25813 -68.57144,-174.28573 1.53484,-49.06752 45.71429,-140 45.71429,-140 l 68.57143,200 -17.14286,85.71427 65.71429,-111.42854 c 0,0 -72.41098,-134.28058 -68.57143,-200.00003 C 704.87908,457.75398 740,395.21933 740,395.21933 l 80,214.28571 -31.42857,45.7143 45.71429,-100 c 0,0 -61.45623,-111.53213 -48.57143,-168.57144 9.81143,-43.43388 88.5714,-100 88.5714,-100 0,0 58.11874,116.66472 48.57154,177.14285 -5.6841,36.00681 -60.00008,91.42859 -60.00008,91.42859 L 817.14286,658.07644 928.57143,506.64794 1000,415.21933 c 0,0 -62.85707,85.71431 -62.85707,108.57141 9.125,81.95023 13.8447,143.0427 -17.1429,160 C 868.19246,712.14133 800,695.21934 800,695.21934 l -77.14285,120 c 0,0 45.50265,-56.36156 77.14285,-71.4286 60.80159,-28.95367 200,-28.5714 200,-28.5714 0,0 -79.83087,109.59458 -140,131.4286 -46.6309,16.92129 -148.57142,-8.5715 -148.57142,-8.5715 L 620,935.21931 c 0,0 50.31555,-37.83114 80,-45.71427 48.78522,-12.95562 151.42858,0 151.42858,0 0,0 -80.45356,94.85877 -137.14286,105.71427 -34.04854,6.51999 -122.85714,-37.1428 -122.85714,-37.1428 l -140,122.85709 z"
       id="path3795"
       inkscape:connector-curvature="0"
       sodipodi:nodetypes="ccscsccsccccsccccscscccccsccscsccscsccc" />
    <path
       style="fill:#000000;fill-opacity:1;stroke:none"
       d="m 2402.326,209.5028 -191.2352,0 -151.5766,326.9203 -56.0253,0 -77.1429,147.03909 64.2323,0 -131.4197,280.32186 145.1899,0 131.4508,-280.32186 135.1092,0 0,280.32186 540.8705,0 -60.0044,-135.25943 -349.4486,0 0,-145.06243 53.0111,0 0,-147.03909 -53.0111,0 z m -131.4175,181.66252 0,145.25778 -67.9212,0 z"
       id="path3753"
       inkscape:connector-curvature="0"
       sodipodi:nodetypes="ccccccccccccccccccccccc" />
    <path
       style="fill:#000000;fill-opacity:1;stroke:none"
       d="m 814.57423,1653.5885 -191.23524,-80.2986 -280.36414,209.197 -56.0253,-23.5248 -135.06773,90.325 64.2323,26.9707 -241.850188,178.7704 145.189898,60.9644 241.88129,-178.7573 135.1092,56.7316 -110.43049,233.9528 540.87054,227.1085 -6.72008,-138.0811 -349.4486,-146.7315 57.14617,-121.0672 53.0111,22.2591 57.92483,-122.7168 -53.0111,-22.2591 z m -202.98201,96.4316 -57.22307,121.23 -67.9212,-28.5197 z"
       id="path3753-1"
       inkscape:connector-curvature="0"
       sodipodi:nodetypes="ccccccccccccccccccccccc" />
    <path
       style="font-size:1468.70385742px;font-style:normal;font-variant:normal;font-weight:bold;font-stretch:normal;text-align:start;line-height:125%;letter-spacing:0px;word-spacing:0px;writing-mode:lr-tb;text-anchor:start;fill:#000000;fill-opacity:1;stroke:none;font-family:DejaVu Sans;-inkscape-font-specification:DejaVu Sans Bold"
       d="m 2170.8907,1478.7997 -396.5938,1070.7187 277.5313,0 68.1563,-195.0624 431.7187,0 1.25,3.625 272.7813,0 -75.1563,-202.875 -268.6563,0 0.2188,0.5937 -293.3125,0 147,-426 1.0625,3.0625 73.75,-254.0625 -239.75,0 z m 317.125,0 -109.2188,376.0937 77.625,226.0313 266.6563,0 -223.0313,-602.125 -12.0312,0 z m 90.5938,953.5625 40.5,117.1562 277.5312,0 -43.4062,-117.1562 -274.625,0 z"
       id="path3803"
       inkscape:connector-curvature="0" />
    <path
       style="font-size:1468.70385742px;font-style:normal;font-variant:normal;font-weight:bold;font-stretch:normal;text-align:start;line-height:125%;letter-spacing:0px;word-spacing:0px;writing-mode:lr-tb;text-anchor:start;fill:#000000;fill-opacity:1;stroke:none;font-family:DejaVu Sans;-inkscape-font-specification:DejaVu Sans Bold"
       id="path3803-7"
       d="m -669.4964,1529.7883 -431.7187,0 -68.1283,195.0622 -277.5334,0 396.5787,-1070.69094 329.1675,0 396.5788,1070.69094 -277.5334,0 -67.4112,-195.0622 m -362.8732,-198.648 293.3105,0 -146.2966,-425.98154 -147.0139,425.98154"
       inkscape:connector-curvature="0" />
    <rect
       style="fill:#cfb9b9;fill-opacity:0.57317074;stroke:none"
       id="rect3828-5-1"
       width="760"
       height="74.285736"
       x="-1739.9147"
       y="-290.8158"
       transform="matrix(0.27887647,-0.96032698,0.96032698,0.27887647,0,0)" />
    <path
       style="font-size:1468.70385742px;font-style:normal;font-variant:normal;font-weight:bold;font-stretch:normal;text-align:start;line-height:125%;letter-spacing:0px;word-spacing:0px;writing-mode:lr-tb;text-anchor:start;fill:#000000;fill-opacity:1;stroke:none;font-family:DejaVu Sans;-inkscape-font-specification:DejaVu Sans Bold"
       d="m 2170.8906,2941.4866 -324.25,875.3438 698.125,0 0,0.1874 279.5937,0 -74.0312,-199.8124 -268.625,0 0.4375,1.2812 -293.3125,0 63.875,-185.1562 168.7188,-491.8438 -250.5313,0 z m 280.75,0 -100.9375,294.2812 121.1875,352.875 267.875,0 -239.7187,-647.1562 -48.4063,0 z m -615.5625,903.9375 -61.7812,166.75 277.5312,0 58.25,-166.75 -274,0 z m 725.4688,0.1563 57.5624,166.5937 277.5313,0 -61.7187,-166.5937 -273.375,0 z"
       id="path3803-7-5"
       inkscape:connector-curvature="0" />
    <rect
       style="fill:#cfb9b9;fill-opacity:0.57317074;stroke:none"
       id="rect3828-5-1-2"
       width="760"
       height="28.571394"
       x="1955.4688"
       y="4360.1665" />
    <path
       style="font-size:1468.70385742px;font-style:normal;font-variant:normal;font-weight:bold;font-stretch:normal;text-align:start;line-height:125%;letter-spacing:0px;word-spacing:0px;writing-mode:lr-tb;text-anchor:start;fill:#000000;fill-opacity:1;stroke:none;font-family:DejaVu Sans;-inkscape-font-specification:DejaVu Sans Bold"
       d="M 2170.875 4440.625 L 1846.5625 5316.25 L 2119.9688 5316.25 L 2519 5316.25 L 2520.4375 5316.25 L 2451.625 5117.5938 L 2188.8125 5117.5938 L 2249.125 4942.8438 L 2246.0625 4941.7812 L 2381.75 4552.2188 L 2408.75 4561.625 L 2349.5625 4731.5312 L 2482.125 5117.5938 L 2481.875 5117.5938 L 2550.6562 5316.25 L 2551.6875 5316.25 L 2619.0938 5511.3125 L 2896.625 5511.3125 L 2500.0625 4440.625 L 2170.875 4440.625 z M 1835.9688 5344.8125 L 1774.3125 5511.3125 L 2051.8438 5511.3125 L 2110 5344.8125 L 1835.9688 5344.8125 z "
       transform="translate(0,52.362183)"
       id="path3803-7-0" />
  </g>
</svg>
