<?xml version="1.0" encoding="UTF-8" standalone="no"?>
<!-- Created with Inkscape (http://www.inkscape.org/) -->

<svg
   xmlns:dc="http://purl.org/dc/elements/1.1/"
   xmlns:cc="http://creativecommons.org/ns#"
   xmlns:rdf="http://www.w3.org/1999/02/22-rdf-syntax-ns#"
   xmlns:svg="http://www.w3.org/2000/svg"
   xmlns="http://www.w3.org/2000/svg"
   xmlns:sodipodi="http://sodipodi.sourceforge.net/DTD/sodipodi-0.dtd"
   xmlns:inkscape="http://www.inkscape.org/namespaces/inkscape"
   width="2000"
   height="405"
   id="svg9631"
   version="1.1"
   inkscape:version="0.48.3.1 r9886"
   sodipodi:docname="region-aquitaine.svg">
  <defs
     id="defs9633" />
  <sodipodi:namedview
     id="base"
     pagecolor="#ffffff"
     bordercolor="#666666"
     borderopacity="1.0"
     inkscape:pageopacity="0.0"
     inkscape:pageshadow="2"
     inkscape:zoom="0.35"
     inkscape:cx="1586.642"
     inkscape:cy="191.07143"
     inkscape:document-units="px"
     inkscape:current-layer="layer1"
     showgrid="false"
     borderlayer="true"
     inkscape:showpageshadow="false"
     fit-margin-top="0"
     fit-margin-left="0"
     fit-margin-right="0"
     fit-margin-bottom="0"
     inkscape:window-width="1680"
     inkscape:window-height="952"
     inkscape:window-x="0"
     inkscape:window-y="25"
     inkscape:window-maximized="1" />
  <metadata
     id="metadata9636">
    <rdf:RDF>
      <cc:Work
         rdf:about="">
        <dc:format>image/svg+xml</dc:format>
        <dc:type
           rdf:resource="http://purl.org/dc/dcmitype/StillImage" />
        <dc:title />
      </cc:Work>
    </rdf:RDF>
  </metadata>
  <g
     inkscape:label="Calque 1"
     inkscape:groupmode="layer"
     id="layer1"
     transform="translate(1205.9277,-318.43361)">
    <path
       inkscape:connector-curvature="0"
       id="path9612"
       d="m -1205.2611,722.76691 c -0.3666,-0.3666 -0.6666,-91.4916 -0.6666,-202.5 l 0,-201.8333 182.3138,0 182.31378,0 -0.35042,6.25 c -0.19274,3.4375 -0.78395,12.3504 -1.31381,19.8065 -0.52987,7.4562 -0.9632,14.6562 -0.96296,16 l 4.2e-4,2.4435 -23.75042,0 -23.75043,0 -0.70894,5 c -0.38991,2.75 -1.44152,11.0159 -2.3369,18.3686 -4.61955,37.9351 -22.01768,106.7058 -39.54066,156.2948 -17.5461,49.6545 -37.84349,92.212 -56.52492,118.5158 -2.41372,3.3985 -4.38858,6.661 -4.38858,7.25 0,0.7364 9.05494,1.0708 29,1.0708 19.899,0 29,0.3352 29,1.0681 0,1.83 -15.45221,23.9067 -24.68947,35.2741 -4.84579,5.9632 -9.93553,12.3589 -11.31053,14.2127 l -2.5,3.3704 -114.58336,0.037 c -63.0208,0.02 -114.8833,-0.2626 -115.25,-0.6293 z m 1075.33346,-58.3507 c -3.025,-2.7283 -6.1316,-4.9655 -6.9035,-4.9716 -0.7719,-0.01 -3.8335,1.1385 -6.8035,2.5436 -18.4912,8.7477 -41.5095,8.5654 -59.793,-0.4737 -14.68585,-7.2604 -25.59725,-19.7333 -31.15995,-35.619 -2.4774,-7.0748 -2.788,-9.3547 -2.788,-20.4619 0,-11.0595 0.3161,-13.4021 2.743,-20.3278 11.8469,-33.8078 47.86325,-50.911 83.70495,-39.7494 14.0422,4.373 28.8434,16.6898 35.7746,29.7698 9.362,17.6673 9.4834,42.0306 0.294,58.997 -1.6237,2.9978 -2.73,5.9814 -2.4586,6.6304 0.2715,0.649 2.7203,2.9412 5.4418,5.0938 2.7215,2.1525 4.9482,4.4192 4.9482,5.0369 0,1.4884 -14.6915,17.9864 -16.2701,18.2709 -0.6765,0.1219 -3.7049,-2.0107 -6.7299,-4.739 z m -33.4428,-22.1013 c 2.4435,-0.6153 4.4428,-1.6916 4.4428,-2.3918 0,-0.7002 -3.825,-4.5205 -8.5,-8.4895 -4.675,-3.969 -8.5,-7.6215 -8.5,-8.1167 0,-1.8921 16.1702,-18.8968 17.3238,-18.2179 0.6469,0.3807 4.8278,3.9867 9.2908,8.0134 4.4631,4.0266 8.6367,7.3212 9.2747,7.3212 2.8564,0 4.7859,-12.896 3.2072,-21.4359 -2.3688,-12.814 -8.7289,-21.9174 -19.3282,-27.665 -5.9964,-3.2517 -6.7237,-3.3991 -16.7683,-3.3991 -9.4492,0 -11.0646,0.2772 -16.1415,2.7705 -18.00125,8.8401 -25.47615,32.8649 -16.276,52.3122 3.6582,7.7328 12.8001,15.8318 20.6941,18.333 7.0871,2.2456 14.8061,2.5959 21.2806,0.9656 z m 121.942804,25.0458 c -21.1605,-3.551 -35.1385,-17.7431 -39.042,-39.6401 -1.0149,-5.6929 -1.3976,-17.7952 -1.4231,-45.0018 -0.034,-35.7887 0.039,-37.2545 1.8994,-38.25 2.0626,-1.1039 20.8313,-1.4461 23.4839,-0.4282 1.3991,0.5369 1.5841,4.5503 1.6016,34.75 0.026,44.1292 1.0081,50.7008 8.6386,57.7788 5.2575,4.8768 9.215,6.2771 17.8683,6.3223 10.2415,0.053 16.4483,-2.7808 21.0582998,-9.6161 4.8822,-7.2386 5.415,-12.3949 5.415,-52.4018 0,-32.1111 0.1797,-36.2952 1.58179998,-36.8332 2.38860002,-0.9166 22.72640022,-0.698 24.23820022,0.2606 1.0686,0.6775 1.2482,8.7201 0.9431,42.2346 -0.3312,36.3825 -0.5935,42.0641 -2.1653,46.8978 -4.4681,13.7399 -12.9649002,24.1918 -23.8501002,29.3378 -10.3621998,4.8988 -27.0585998,6.8026 -40.2476998,4.5893 z m -334.876574,-1.7272 c -0.2913,-0.4714 11.0468,-28.0467 25.1957,-61.2785 l 25.7253,-60.4214 12.8626,0 12.8626,0 25.35332,59.5 c 13.9443,32.725 25.3587,60.3002 25.3652,61.2782 0.011,1.6317 -1.116,1.7553 -13.678,1.5 l -13.6897,-0.2782 -2.3981,-6 c -1.3189,-3.3 -3.7505,-9.2625 -5.4035,-13.25 l -3.0055,-7.25 -25.39822,0 c -23.1066,0 -25.4967,0.1579 -26.489,1.75 -0.5998,0.9625 -3.1912,6.925 -5.7584,13.25 l -4.6678,11.5 -13.1734,0.2785 c -7.2453,0.1531 -13.4117,-0.1072 -13.7031,-0.5786 z m 77.9356,-51.4934 c 0.691,-1.8006 -13.0888,-35.2065 -14.5225,-35.2065 -1.4205,0 -15.2684,33.4535 -14.5851,35.2343 0.7057,1.8388 28.4015,1.8124 29.1076,-0.028 z m 357.136074,51.6552 c -0.3823,-0.3823 -0.6951,-27.7969 -0.6951,-60.9214 0,-53.9961 0.1636,-60.2891 1.5818,-60.8333 3.0467,-1.1692 21.9684,-0.6566 23.7377,0.643 1.5746,1.1566 1.6822,5.7309 1.4411,61.25 l -0.2607,60 -12.5549,0.2784 c -6.9052,0.1531 -12.8677,-0.034 -13.25,-0.4167 z m 89.785296,-0.5817 c -0.264,-0.704 -0.5926,-22.43 -0.7302,-48.28 l -0.2502,-47 -18,-0.5587 c -9.9,-0.3072 -18.1125,-0.6447 -18.25,-0.75 -0.1375,-0.1052 -0.25,-5.5432 -0.25,-12.0843 0,-9.9224 0.2621,-11.9936 1.5818,-12.5 2.0661,-0.7929 95.7703,-0.7929 97.8364,0 1.3197,0.5064 1.5817,2.5776 1.5817,12.5 0,6.5411 -0.1124,11.9791 -0.25,12.0843 -0.1375,0.1053 -8.3499,0.4428 -18.25,0.75 l -18,0.5587 -0.5,48 -0.5,48 -12.7699,0.28 c -9.6654,0.212 -12.8865,-0.031 -13.2497,-1 z m 63.5196,0.1081 c 0,-1.4587 49.9274,-119.011 51.238,-120.6381 0.7068,-0.8774 4.6647,-1.25 13.2775,-1.25 8.8836,0 12.4083,0.345 12.7696,1.25 0.2745,0.6875 11.7976,27.7519 25.607,60.1432 13.8093,32.3913 25.1079,59.5165 25.1079,60.2782 0,1.1263 -2.5676,1.333 -13.7468,1.1068 l -13.7468,-0.2782 -5.1342,-12.331 c -2.8238,-6.782 -5.5556,-12.7524 -6.0707,-13.2675 -0.5473,-0.5474 -11.4796,-0.8254 -26.3031,-0.6691 l -25.3664,0.2676 -4.7801,11.8543 c -2.6291,6.5199 -5.3014,12.4824 -5.9385,13.25 -1.4876,1.7924 -26.9134,2.0605 -26.9134,0.2838 z m 79,-51.4332 c 0,-2.2695 -14.527,-35.4468 -15.3954,-35.1606 -1.2316,0.406 -14.4074,31.2013 -14.528,33.9557 -0.07,1.5923 1.2752,1.75 14.9233,1.75 8.25,0 15,-0.2453 15,-0.5451 z m 74.6951,51.9068 c -0.3823,-0.3823 -0.6951,-27.6042 -0.6951,-60.4932 0,-58.0972 0.055,-59.8276 1.9343,-60.8333 2.2596,-1.2094 21.9746,-1.3798 23.8236,-0.206 0.9925,0.6301 1.2035,13.548 1,61.2347 l -0.258,60.4361 -12.5549,0.2784 c -6.9052,0.1531 -12.8677,-0.034 -13.25,-0.4167 z m 62,0 c -0.3823,-0.3823 -0.6951,-27.7969 -0.6951,-60.9214 0,-53.9961 0.1636,-60.2891 1.5818,-60.8333 2.1267,-0.8161 20.4907,-0.6426 22.5683,0.2133 0.9075,0.3738 13.8973,16.7672 28.8661,36.4297 14.9688,19.6625 27.6138,35.75 28.0998,35.75 0.4954,0 0.8839,-15.7742 0.8839,-35.893 0,-31.8073 0.1802,-35.9621 1.5818,-36.5 3.0468,-1.1692 21.9684,-0.6566 23.7377,0.643 1.5747,1.1566 1.6823,5.7309 1.4411,61.25 l -0.2606,60 -11.0467,0.2808 c -10.3995,0.2644 -11.1706,0.1473 -13.1614,-2 -1.163,-1.2544 -14.0981,-18.0308 -28.7445,-37.2808 -14.6464,-19.25 -27.0558,-35.1482 -27.5764,-35.3293 -0.5813,-0.2022 -1.0477,14.0742 -1.2087,37 l -0.2623,37.3293 -12.5549,0.2784 c -6.9052,0.1531 -12.8677,-0.034 -13.25,-0.4167 z m 141.9716,-0.028 c -0.3667,-0.3666 -0.6667,-27.5758 -0.6667,-60.4648 0,-58.0972 0.055,-59.8276 1.9343,-60.8333 1.2473,-0.6676 17.2038,-1.0352 44.9285,-1.0352 37.7524,0 43.1859,0.1916 44.5658,1.5714 1.2029,1.2029 1.5678,3.724 1.5561,10.75 -0.01,5.0482 -0.4416,9.8536 -0.9626,10.6786 -0.7983,1.2642 -5.9439,1.5786 -32.7346,2 l -31.7875,0.5 0,11.5 0,11.5 27.4173,0.2664 c 18.5851,0.1805 27.857,0.6313 28.7823,1.3992 1.0315,0.8561 1.296,3.7233 1.0827,11.7337 l -0.2823,10.6007 -27.4173,0.2664 c -18.1854,0.1766 -27.866,0.6388 -28.75,1.3724 -1.7745,1.4727 -1.8891,21.9048 -0.1327,23.6612 0.8828,0.8828 9.5761,1.2 32.893,1.2 27.9774,0 31.7642,0.1854 32.3,1.5818 1.0099,2.6318 0.68,18.4132 -0.4283,20.4839 -1.0001,1.8687 -2.5717,1.9343 -46.3333,1.9343 -24.914,0 -45.5981,-0.3 -45.9648,-0.6667 z M -73.427636,497.60491 c -21.5337,-5.5584 -36.831004,-19.2901 -43.450404,-39.0033 -12.3275,-36.7123 8.1858,-75.1536 44.716604,-83.7972 14.971,-3.5423 36.5727,-1.2697 49.3879,5.1958 6.8162,3.439 13.8458998,8.4511 13.8458998,9.872 0,1.5913 -15.0514998,19.5618 -16.3843998,19.5618 -0.6171,0 -3.3645,-1.5944 -6.1054,-3.5431 -10.9686,-7.7983 -29.258,-9.8326 -39.9199,-4.4401 -7.1166,3.5994 -13.249,10.0415 -16.9046,17.7584 -2.9548,6.2373 -3.1857,7.4897 -3.1857,17.2766 0,10.2125 0.1229,10.8006 3.8208,18.2827 4.4315,8.9667 10.189,14.208 19.4271,17.6855 8.3307,3.1359 23.2787,2.5494 31.4649,-1.2346 6.5361,-3.0213 7.0467,-4.0917 6.5906,-13.8163 l -0.3034,-6.4691 -13,-0.5 -13,-0.5 -0.2855,-10.919 c -0.2109,-8.0625 0.051,-11.1324 1,-11.7347 1.476,-0.9365 47.8112998,-1.1574 50.2036998,-0.2393 1.387,0.5322 1.5818,3.8526 1.5818,26.9676 l 0,26.3606 -5.25,3.9238 c -6.6271998,4.953 -15.2691998,9.2802 -24.2499998,12.1421 -9.8629,3.1431 -30.0664,3.734 -40,1.1698 z m 206.999996,0.4139 c -13.9157,-3.2134 -23.7924,-8.8666 -33.36,-19.0943 -10.690696,-11.4284 -16.139996,-25.7743 -16.139996,-42.4905 0,-18.3526 5.5777,-31.8186 18.488496,-44.6364 12.9969,-12.9033 27.2378,-18.5975 46.5115,-18.5975 18.9292,0 33.5701,5.791 46.0537,18.2158 12.885,12.8244 18.3545,26.0728 18.3787,44.5181 0.025,18.7929 -6.0378,33.2254 -19.1538,45.5984 -8.2736,7.8048 -13.4989,10.9751 -23.8885,14.4938 -9.7,3.2851 -27.1995,4.2303 -36.8902,1.9926 z m 24.4657,-24.6709 c 2.7853,-0.5973 7.6622,-2.821 10.8377,-4.9415 10.6251,-7.0951 16.1966,-18.086 16.1966,-31.9508 0,-22.0703 -15.1287,-37.9331 -36.2393,-37.9979 -12.4826,-0.038 -22.5347,4.9452 -29.3715,14.5613 -5.0489,7.1014 -6.8912,13.5083 -6.8767,23.915 0.011,8.0084 0.3609,9.7382 3.1744,15.7007 7.937,16.8204 23.9196,24.6506 42.2788,20.7132 z m -524.49507,22.8661 c -0.2693,-0.704 -0.3728,-28.055 -0.2301,-60.78 l 0.2594,-59.5 31.5,-0.2971 c 34.5077,-0.3255 39.75122,0.1887 49.60672,4.8649 12.4257,5.8958 19.364,17.0441 20.1675,32.4047 0.5625,10.7542 -1.1996,18.2984 -6.0556,25.9269 -2.9848,4.6888 -12.6092,12.7963 -16.7511,14.1109 -1.0821,0.3434 -1.9675,0.9664 -1.9675,1.3842 0,0.4179 6.2731,9.9241 13.9401,21.125 7.6671,11.2009 13.7155,20.7287 13.441,21.1729 -0.2745,0.4442 -7.217,0.8076 -15.4277,0.8076 l -14.9285,0 -13.04802,-19.5346 -13.048,-19.5346 -10.2145,0.2846 -10.2144,0.2846 -0.5,19 -0.5,19 -12.7699,0.28 c -9.6616,0.2119 -12.889,-0.032 -13.2594,-1 z m 61.8049,-62.9807 c 8.6117,-2.5801 13.77162,-11.1834 11.84642,-19.7517 -1.2852,-5.7201 -3.47712,-8.6647 -8.38662,-11.2662 -3.9046,-2.0691 -5.563,-2.2459 -21.2354,-2.2629 l -17,-0.018 -0.2765,15.9598 c -0.152,8.778 -0.054,16.5405 0.2187,17.25 0.6633,1.7287 29.1183,1.8017 34.8334,0.089 z m 68.33522,62.6288 c -0.9178,-2.3917 -0.705,-117.7315 0.2199,-119.1884 0.6284,-0.9899 10.5503,-1.2045 46.23475,-1 l 45.4346,0.2603 0,11.5 0,11.5 -32.25,0.2638 -32.25005,0.2639 0,11.9706 0,11.9705 28.25005,0.2656 28.25,0.2656 0.2843,11.4197 c 0.2108,8.4635 -0.048,11.6308 -1,12.2347 -0.7063,0.4482 -13.5607,0.8219 -28.5651,0.8303 l -27.28085,0.015 0.2808,12.25 0.2808,12.25 32.50005,0.5 32.5,0.5 0,11.5 0,11.5 -46.1392,0.2599 c -41.42395,0.2333 -46.20165,0.097 -46.75005,-1.3318 z m 263.848454,0.3219 c -0.263,-0.6875 -0.3613,-28.025 -0.2186,-60.75 l 0.2594,-59.5 12.9217,-0.2812 c 9.666,-0.2103 13.1266,0.042 13.7347,1 0.9311,1.4673 1.16,116.7931 0.2366,119.1994 -0.5102,1.3295 -2.6685,1.5818 -13.5314,1.5818 -9.4179,0 -13.0541,-0.3392 -13.4024,-1.25 z m 215.207496,0.5833 c -0.3667,-0.3666 -0.6667,-27.7685 -0.6667,-60.893 0,-53.9961 0.1636,-60.2891 1.5818,-60.8333 0.87,-0.3339 5.9951,-0.607 11.3892,-0.607 7.8519,0 10.2376,0.3489 11.9649,1.75 1.1866,0.9625 13.9576,17.2416 28.38,36.1758 14.4223,18.9342 26.6638,34.4592 27.2033,34.5 0.6195,0.047 1.0777,-12.985 1.2438,-35.3748 0.1991,-26.8322 0.5637,-35.64 1.5,-36.2347 2.0898,-1.3273 22.1515,-0.9656 24.0565,0.4337 1.5746,1.1566 1.6822,5.7309 1.4411,61.25 l -0.2607,60 -11,0.2523 c -6.0499,0.1388 -11.4951,-0.086 -12.1003,-0.5 -0.6052,-0.4138 -13.2852,-16.7578 -28.1778,-36.3201 -14.8928,-19.5622 -27.7852,-36.1548 -28.6497,-36.8724 -1.4246,-1.1822 -1.5722,2.0789 -1.5722,34.736 0,19.8223 -0.2731,36.7524 -0.6069,37.6224 -0.5078,1.323 -2.607,1.5818 -12.8334,1.5818 -6.7245,0 -12.5263,-0.3 -12.893,-0.6667 z m -446.2389,-133.0058 c 1.328,-3.4609 17.1274,-27.5881 18.387,-28.079 1.3341,-0.5198 20.8133,7.3408 21.6846,8.7506 0.4649,0.7522 -13.416,14.8328 -18.6571,18.9255 -2.2733,1.7752 -4.0607,2.0754 -12.357,2.0754 -8.6552,0 -9.6302,-0.18 -9.0575,-1.6725 z"
       style="fill:#068bc6" />
    <path
       inkscape:connector-curvature="0"
       id="path9610"
       d="m -974.92774,722.54171 c 0,-0.4905 1.95625,-3.078 4.34721,-5.75 9.8123,-10.9655 23.64,-29.82 34.39056,-46.8925 13.10373,-20.8094 30.6807,-56.4572 42.14087,-85.4656 12.07322,-30.5603 11.4965,-28.9545 10.69661,-29.7821 -0.38168,-0.3948 -8.19839,-6.3429 -17.37046,-13.2179 -9.17207,-6.875 -16.6072,-12.9333 -16.52251,-13.4628 0.0847,-0.5295 10.81797,-5.0661 23.85172,-10.0813 14.11089,-5.4297 24.08831,-9.8165 24.66321,-10.8438 0.53102,-0.9489 3.14765,-11.4186 5.81473,-23.266 2.66709,-11.8473 5.06902,-21.7604 5.33763,-22.029 0.26862,-0.2686 0.97977,0.4297 1.58034,1.5519 0.60057,1.1222 20.00676,47.3759 43.12487,102.786 23.11811,55.4102 42.51829,101.3306 43.11152,102.0454 1.66915,2.0112 52.8337,1.8865 52.8337,-0.1287 0,-0.7856 -28.6123,-69.695 -63.58288,-153.132 l -63.58288,-151.7036 1.16681,-20.1181 c 0.64174,-11.0649 1.36261,-21.1305 1.60193,-22.368 l 0.43512,-2.25 178.37396,0 c 161.73123,0 178.4306,0.1476 178.98095,1.5818 1.11665,2.9099 0.6938,399.3875 -0.42819,401.4839 -1.01913,1.9043 -4.83393,1.9343 -246,1.9343 -142.83875,0 -244.96482,-0.3718 -244.96482,-0.8919 z m 448.61761,-56.554 c 0.38942,-1.0148 -16.34846,-35.4433 -19.10979,-39.3074 -0.0995,-0.1392 -9.14201,-0.4481 -20.0944,-0.6864 -28.45863,-0.6191 -55.64451,-3.2341 -95.41342,-9.1781 -22.41967,-3.3508 -56.53801,-9.7947 -67.74735,-12.7952 -2.88605,-0.7725 -5.49129,-1.0099 -5.78942,-0.5275 -1.00638,1.6283 7.7291,21.0204 10.1976,22.6378 10.74289,7.039 134.37882,33.63 184.82917,39.7521 6.0555,0.7349 11.36162,1.3844 11.79138,1.4433 0.42977,0.059 1.03107,-0.5434 1.33623,-1.3386 z m -41.35802,-68.325 c 2.61777,-0.5032 5.08154,-1.2369 5.47504,-1.6304 0.39351,-0.3935 -3.54831,-9.1267 -8.75958,-19.4071 -7.71249,-15.2146 -9.84709,-18.6684 -11.47505,-18.5671 -1.1,0.069 -8.20313,1.3034 -15.78472,2.7442 -13.91764,2.6448 -28.47664,4.6917 -47.71528,6.7084 -5.775,0.6054 -31.3125,1.3383 -56.75,1.6287 -28.50428,0.3254 -46.25,0.8962 -46.25,1.4876 0,1.557 7.17481,17.7966 8.12107,18.3814 3.38708,2.0933 49.0383,7.5505 78.37893,9.3695 17.28418,1.0715 88.25125,0.5359 94.75959,-0.7152 z m -246.53545,-13.9791 c -0.9852,-3.3864 -30.88693,-74.7599 -31.65199,-75.5512 -0.75813,-0.7842 -54.72231,19.5587 -56.44754,21.2791 -0.99611,0.9932 12.80876,11.4225 34.37539,25.9697 18.84148,12.7091 26.12662,17.1751 39.5,24.2149 11.58376,6.0977 15.10321,7.1091 14.22414,4.0875 z m 126.27586,-30.1913 c 39.03521,-5.2299 88.57788,-17.2304 92.96702,-22.519 0.82855,-0.9983 -1.10922,-5.5712 -8.01652,-18.9182 -5.01006,-9.6808 -9.50428,-17.8457 -9.98716,-18.1442 -0.48289,-0.2984 -3.26829,0.8064 -6.18978,2.4552 -12.99965,7.3366 -41.85464,17.7079 -68.27356,24.5396 -25.05747,6.4796 -58.56737,12.5279 -69.40972,12.5279 -7.72215,0 -7.71326,0.8448 0.19852,18.883 l 1.92244,4.3829 25.64438,-0.5653 c 17.36755,-0.3828 30.64707,-1.2355 41.14438,-2.6419 z m -60.82697,-35.5981 c 27.25732,-6.7758 54.82161,-16.8483 79.5232,-29.0592 14.42193,-7.1293 37.25306,-21.2255 40.2743,-24.8659 1.23529,-1.4884 0.52592,-3.4497 -6.0083,-16.6116 -4.07493,-8.2082 -7.99213,-14.9239 -8.70488,-14.9239 -0.71275,0 -4.99974,3.2036 -9.52663,7.1191 -23.02742,19.9176 -67.85917,44.8318 -108.73072,60.4248 -15.4073,5.878 -14.8885,5.0605 -10.0524,15.8393 3.53291,7.8742 0.8662,7.6357 23.22543,2.0774 z m -20.62124,-29.8722 c 21.39853,-11.3256 44.58121,-27.562 67.4175,-47.2169 13.34961,-11.4899 38.94853,-36.9809 41.01501,-40.8422 1.35401,-2.53 1.03684,-3.3945 -6.72958,-18.3422 -4.48281,-8.6279 -8.7365,-15.788 -9.45264,-15.9112 -0.71614,-0.1233 -3.55208,2.9801 -6.30208,6.8964 -17.44303,24.8406 -64.64598,71.873 -93.82047,93.4815 -5.59874,4.1467 -10.53929,7.8783 -10.97899,8.2923 -1.34699,1.2684 6.20032,19.0539 8.08552,19.0539 0.29765,0 5.14222,-2.4352 10.76573,-5.4116 z"
       style="fill:#29a751" />
  </g>
</svg>
