<?xml version="1.0" encoding="UTF-8" standalone="no"?>
<!-- Created with Inkscape (http://www.inkscape.org/) -->

<svg
   xmlns:dc="http://purl.org/dc/elements/1.1/"
   xmlns:cc="http://creativecommons.org/ns#"
   xmlns:rdf="http://www.w3.org/1999/02/22-rdf-syntax-ns#"
   xmlns:svg="http://www.w3.org/2000/svg"
   xmlns="http://www.w3.org/2000/svg"
   xmlns:sodipodi="http://sodipodi.sourceforge.net/DTD/sodipodi-0.dtd"
   xmlns:inkscape="http://www.inkscape.org/namespaces/inkscape"
   width="4700"
   height="1200"
   id="svg3814"
   version="1.1"
   inkscape:version="0.48.5 r10040"
   sodipodi:docname="logo.svg"
   inkscape:export-filename="/home/brice/Projets/agrilibre/graphism/logo/xldpi.png"
   inkscape:export-xdpi="11.26"
   inkscape:export-ydpi="11.26">
  <defs
     id="defs3816" />
  <sodipodi:namedview
     id="base"
     pagecolor="#ffffff"
     bordercolor="#666666"
     borderopacity="1.0"
     inkscape:pageopacity="0.0"
     inkscape:pageshadow="2"
     inkscape:zoom="0.12374369"
     inkscape:cx="-117.71607"
     inkscape:cy="2224.7119"
     inkscape:document-units="px"
     inkscape:current-layer="layer1"
     showgrid="false"
     fit-margin-top="0"
     fit-margin-left="0"
     fit-margin-right="0"
     fit-margin-bottom="0"
     inkscape:window-width="1920"
     inkscape:window-height="1057"
     inkscape:window-x="0"
     inkscape:window-y="0"
     inkscape:window-maximized="1"
     showguides="true"
     inkscape:guide-bbox="true"
     borderlayer="true"
     inkscape:showpageshadow="false">
    <sodipodi:guide
       orientation="1,0"
       position="100,0"
       id="guide3027" />
    <sodipodi:guide
       orientation="1,0"
       position="4600,0"
       id="guide3029" />
    <sodipodi:guide
       orientation="0,1"
       position="0,100"
       id="guide4059" />
    <sodipodi:guide
       orientation="0,1"
       position="0,1100"
       id="guide4061" />
  </sodipodi:namedview>
  <metadata
     id="metadata3819">
    <rdf:RDF>
      <cc:Work
         rdf:about="">
        <dc:format>image/svg+xml</dc:format>
        <dc:type
           rdf:resource="http://purl.org/dc/dcmitype/StillImage" />
        <dc:title></dc:title>
      </cc:Work>
    </rdf:RDF>
  </metadata>
  <g
     inkscape:label="Calque 1"
     inkscape:groupmode="layer"
     id="layer1"
     transform="translate(-1127.1429,309.06637)">
    <g
       id="g3801"
       transform="translate(-5220.4684,-2707.2089)">
      <text
         sodipodi:linespacing="125%"
         id="text3002"
         y="1259.3239"
         x="903.50024"
         style="font-size:1067.83447266px;font-style:normal;font-variant:normal;font-weight:200;font-stretch:normal;text-align:start;line-height:125%;letter-spacing:0px;word-spacing:0px;writing-mode:lr-tb;text-anchor:start;fill:#489444;fill-opacity:1;stroke:none;font-family:Source Sans Pro;-inkscape-font-specification:Source Sans Pro Ultra-Light"
         xml:space="preserve"><tspan
           style="font-size:1067.83447266px;font-style:normal;font-variant:normal;font-weight:200;font-stretch:normal;text-align:start;line-height:125%;writing-mode:lr-tb;text-anchor:start;fill:#489444;fill-opacity:1;font-family:Source Sans Pro;-inkscape-font-specification:Source Sans Pro Ultra-Light"
           y="1259.3239"
           x="903.50024"
           id="tspan3004"
           sodipodi:role="line"><tspan
   id="tspan3799"
   style="font-weight:bold">AGRI</tspan>LIBRE</tspan></text>
      <text
         sodipodi:linespacing="125%"
         id="text3002-0"
         y="1560.0392"
         x="899.95508"
         style="font-size:302.73852539px;font-style:normal;font-variant:normal;font-weight:normal;font-stretch:normal;text-align:start;line-height:125%;letter-spacing:0px;word-spacing:0px;writing-mode:lr-tb;text-anchor:start;fill:#5f5f5f;fill-opacity:1;stroke:none;font-family:Source Sans Pro;-inkscape-font-specification:Source Sans Pro"
         xml:space="preserve"><tspan
           style="font-size:302.73852539px;font-style:normal;font-variant:normal;font-weight:normal;font-stretch:normal;text-align:start;line-height:125%;writing-mode:lr-tb;text-anchor:start;fill:#5f5f5f;fill-opacity:1;font-family:Source Sans Pro;-inkscape-font-specification:Source Sans Pro"
           y="1560.0392"
           x="899.95508"
           id="tspan3004-1"
           sodipodi:role="line">OUTILS LIBRES POUR L'AGRICULTURE</tspan></text>
    </g>
    <g
       id="g4054"
       transform="translate(100.00003,-99.999998)">
      <path
         inkscape:connector-curvature="0"
         id="path3842"
         d="m 2082.2945,-109.06637 c -44.9239,6.9e-4 -87.4744,7.95367 -127.6329,23.83083 -39.4784,15.8785 -74.1945,38.99915 -104.1434,69.373523 -29.2682,30.375545 -52.7411,67.663939 -70.4381,111.845222 -17.0165,43.491895 -25.5391,93.179055 -25.5388,149.096255 -2e-4,56.60821 8.1631,106.64907 24.4989,150.14039 17.0164,42.80125 40.1604,78.70524 69.4289,107.69939 29.268,28.99434 63.2964,51.0844 102.094,66.27182 39.4779,14.49718 81.6998,21.74257 126.6236,21.74257 46.9649,0 89.8443,-7.92235 128.6422,-23.80012 38.797,-15.87787 70.1041,-35.19889 93.9278,-57.98017 l 0,-310.6607 -243.001,0 0,124.252 110.2603,0 0,115.99105 c -8.1683,6.90351 -18.6932,12.0569 -31.6252,15.50846 -12.933,3.45185 -26.2094,5.19006 -39.8223,5.18996 -62.6209,1e-4 -109.5969,-18.99784 -140.9069,-56.96674 -30.6297,-38.65886 -45.9395,-92.82249 -45.9393,-162.54717 -2e-4,-33.82632 4.0661,-64.22311 12.2342,-91.14679 8.8482,-26.92283 21.1082,-49.689701 36.7636,-68.329382 15.6548,-18.638679 34.0449,-32.806409 55.1455,-42.471703 21.7807,-10.354561 45.5821,-15.507917 71.4475,-15.508467 28.5874,5.5e-4 51.7312,4.477032 69.4289,13.450908 18.3771,8.974956 35.7507,21.404431 52.0869,37.28174 l 82.703,-94.248486 c -21.7816,-22.78061 -50.0392,-43.13237 -84.7521,-61.08186 -34.0336,-17.94819 -74.5205,-26.93184 -121.4853,-26.93253 z m 1314.7136,4.14583 0,683.4474 349.1629,0 0,-28.99008 -316.4977,0 0,-654.45732 -32.6652,0 z m 470.587,0 0,683.4474 32.6958,0 0,-683.4474 -32.6958,0 z m 237.3121,0 0,683.4474 187.8557,0 c 76.9139,0 137.4951,-16.58288 181.7383,-49.71923 44.9229,-33.82661 67.3791,-83.51371 67.3797,-149.09625 -6e-4,-47.63323 -14.6221,-85.27545 -43.8901,-112.88935 -29.2686,-27.6133 -69.0984,-45.19611 -119.4665,-52.79021 l 0,-4.14583 c 40.1582,-10.35474 70.1205,-28.64514 89.8598,-54.87848 20.4193,-26.23249 30.6156,-57.659963 30.6161,-94.248487 -5e-4,-55.91702 -19.3764,-97.328093 -58.1735,-124.251993 -38.7979,-27.61296 -92.2327,-41.42689 -160.298,-41.42757 l -175.6215,0 z m 586.261,0 0,683.4474 32.6959,0 0,-323.09819 151.0919,0 189.9048,323.09819 38.7823,0 -191.9235,-325.15575 c 56.4943,-5.5224 100.7187,-23.45901 132.7101,-53.83433 32.671,-31.06494 49.0278,-73.89118 49.0284,-128.428542 -6e-4,-31.75513 -5.1137,-58.675402 -15.3233,-80.766869 -10.2102,-22.090289 -24.8627,-40.026899 -43.9207,-53.834339 -18.3781,-14.4965 -40.8344,-24.86463 -67.3796,-31.07836 -26.5461,-6.90273 -56.4774,-10.34853 -89.8294,-10.34921 l -185.8369,0 z m 564.3314,0 0,683.4474 371.6433,0 0,-28.99008 -338.9476,0 0,-321.00992 275.6663,0 0,-28.99008 -275.6663,0 0,-275.46724 328.7319,0 0,-28.99008 -361.4276,0 z m -3920.0701,8.29165 -208.2866,675.15575 153.1717,0 40.8315,-160.52032 203.1789,0 40.8315,160.52032 159.2582,0 -208.2561,-675.15575 -180.7291,0 z m 1102.8485,0 0,675.15575 150.0825,0 0,-243.34474 82.703,0 127.6329,243.34474 168.4644,0 -151.1225,-270.27727 c 36.0744,-15.87756 64.6607,-39.70582 85.7614,-71.46179 21.7806,-32.44563 32.6648,-73.50291 32.6653,-123.20786 -5e-4,-40.039248 -6.7878,-73.528053 -20.4005,-100.451873 -13.6136,-26.922699 -32.0036,-48.335817 -55.1454,-64.214267 -23.1429,-16.56753 -50.3534,-28.2894 -81.6631,-35.19347 -30.6299,-6.90273 -63.6417,-10.34855 -99.0355,-10.34922 l -239.9425,0 z m 628.1325,0 0,675.15575 150.0825,0 0,-675.15575 -150.0825,0 z m 1071.1619,20.69843 128.6423,0 c 66.0234,6.5e-4 115.7208,10.36877 149.0732,31.07836 34.0325,20.710818 51.0466,54.522701 51.0471,101.465295 -5e-4,47.633975 -15.9979,83.537915 -47.9886,107.699395 -31.9912,23.47198 -84.7382,35.22456 -158.2488,35.22419 l -122.5252,0 0,-275.46724 z m 586.2917,0 140.8763,0 c 62.6203,6.5e-4 110.6127,11.04566 143.9656,33.13591 33.3518,22.091513 50.0371,60.05678 50.0377,113.902788 -6e-4,53.156682 -16.686,92.506422 -50.0377,118.048612 -33.3528,24.85263 -81.3453,37.28208 -143.9656,37.28174 l -140.8763,0 0,-302.36905 z m -3303.6824,95.261915 4.0678,0 c 8.8482,35.207897 17.6993,71.819417 26.5481,109.787665 8.8483,37.96915 18.0585,73.84236 27.5881,107.66868 l 15.2927,62.15671 -141.9163,0 16.3326,-62.15671 c 9.529,-33.82632 18.3799,-69.37645 26.5481,-106.65526 8.8483,-37.968243 17.3707,-74.90285 25.5389,-110.801085 z m 1168.1788,5.189962 77.5952,0 c 39.4778,5.5e-4 69.4399,6.569084 89.86,19.685004 21.1,13.117002 31.6249,36.237665 31.6253,69.373519 -4e-4,33.13679 -10.5253,58.3188 -31.6253,75.57691 -20.4201,16.56855 -50.3822,24.87533 -89.86,24.87497 l -77.5952,0 0,-189.510403 z m 1549.2119,204.005443 142.9563,0 c 72.83,3.4e-4 128.9859,12.75289 168.4644,38.29517 40.1583,24.85255 60.222,63.17158 60.2226,114.9469 -6e-4,28.99445 -5.4426,54.20724 -16.3326,75.60763 -10.2103,20.71032 -25.1913,37.97006 -44.93,51.77678 -19.7394,13.80691 -43.9002,24.14423 -72.4873,31.04764 -27.9074,6.21305 -59.5434,9.3358 -94.9371,9.3358 l -142.9563,0 0,-321.00992 z"
         style="font-size:1067.83447266px;font-style:normal;font-variant:normal;font-weight:bold;font-stretch:normal;text-align:start;line-height:125%;letter-spacing:0px;word-spacing:0px;writing-mode:lr-tb;text-anchor:start;fill:#489444;fill-opacity:1;stroke:none;font-family:Source Sans Pro;-inkscape-font-specification:Source Sans Pro Ultra-Light" />
      <g
         transform="matrix(0.95937736,0,0,0.94105723,248.64024,-580.56578)"
         style="font-size:302.73852539px;font-style:normal;font-variant:normal;font-weight:normal;font-stretch:normal;text-align:start;line-height:125%;letter-spacing:0px;word-spacing:0px;writing-mode:lr-tb;text-anchor:start;fill:#5f5f5f;fill-opacity:1;stroke:none;font-family:Source Sans Pro;-inkscape-font-specification:Source Sans Pro"
         id="text3002-0-2">
        <path
           inkscape:connector-curvature="0"
           id="path3861"
           transform="matrix(1.0236418,0,0,1.0133902,-647.01635,1240.6481)"
           d="m 4358.9375,109.03125 0.875,27.5 4.75,49.875 14.7813,0 4.7187,-49.875 0.9063,-27.5 -26.0313,0 z M 1607.1562,115.625 c -11.3447,0.26863 -21.8258,2.58081 -31.4374,6.875 -10.0555,4.58086 -18.7363,11.23724 -26.0313,20 -7.2951,8.56403 -13.0158,19.10936 -17.1563,31.65625 -3.9433,12.34796 -5.9062,26.39157 -5.9062,42.125 0,15.73362 1.9629,29.97272 5.9062,42.71875 4.1405,12.54709 9.8612,23.31915 17.1563,32.28125 7.295,8.76296 15.9758,15.5327 26.0313,20.3125 10.2524,4.7798 21.4944,7.15625 33.7187,7.15625 12.224,0 23.3508,-2.37645 33.4063,-7.15625 10.2524,-4.7798 19.0171,-11.54954 26.3124,-20.3125 7.4921,-8.9621 13.2128,-19.73416 17.1563,-32.28125 4.1402,-12.74603 6.2186,-26.98513 6.2187,-42.71875 -10e-5,-15.53429 -2.0785,-29.46444 -6.2187,-41.8125 -3.9435,-12.5468 -9.6642,-23.09232 -17.1563,-31.65625 -7.2953,-8.76286 -16.06,-15.45039 -26.3124,-20.03125 -10.0555,-4.7796 -21.1823,-7.15595 -33.4063,-7.15625 -0.764,2e-5 -1.5249,-0.0179 -2.2813,0 z m 747.625,0 c -8.8724,3e-4 -17.0389,1.28607 -24.5312,3.875 -7.2951,2.58923 -13.6982,6.2829 -19.2188,11.0625 -5.3234,4.58076 -9.5641,10.03329 -12.7187,16.40625 -2.9575,6.37326 -4.4375,13.25627 -4.4375,20.625 0,7.16979 1.1652,13.54867 3.5312,19.125 2.3659,5.3774 5.4413,10.04818 9.1876,14.03125 3.746,3.98336 7.9868,7.36818 12.7187,10.15625 4.7319,2.78836 9.3402,5.19597 13.875,7.1875 l 27.8125,12.25 c 4.5346,2.19086 8.7754,4.25847 12.7188,6.25 3.9431,1.99163 7.302,4.28607 10.0624,6.875 2.9574,2.39 5.2039,5.38395 6.7813,8.96875 1.7744,3.38576 2.6873,7.55232 2.6875,12.53125 -2e-4,9.55969 -3.5585,17.3378 -10.6562,23.3125 -7.0981,5.77566 -17.0595,8.65635 -29.875,8.65625 -10.0555,10e-5 -19.8175,-2.18097 -29.2813,-6.5625 -9.2668,-4.58066 -17.3492,-10.56857 -24.25,-17.9375 l -14.7813,17.34375 c 8.4781,8.96219 18.5236,16.04069 30.1563,21.21875 11.6327,5.17816 24.2706,7.75 37.875,7.75 10.2525,0 19.4162,-1.39924 27.5,-4.1875 8.0837,-2.9874 14.9696,-6.95857 20.6875,-11.9375 5.7176,-5.17816 10.0737,-11.16607 13.0312,-17.9375 3.1546,-6.77143 4.7187,-14.01396 4.7188,-21.78125 -1e-4,-7.1696 -1.0814,-13.46635 -3.25,-18.84375 -1.9718,-5.57633 -4.7325,-10.36049 -8.2812,-14.34375 -3.5491,-4.1823 -7.7898,-7.7625 -12.7188,-10.75 -4.9293,-3.18643 -10.167,-5.95375 -15.6875,-8.34375 l -27.5,-11.96875 c -3.9433,-1.59317 -7.7851,-3.2699 -11.5313,-5.0625 -3.7461,-1.99143 -7.1892,-4.20375 -10.3437,-6.59375 -3.1547,-2.58893 -5.7159,-5.46952 -7.6875,-8.65625 -1.7745,-3.38557 -2.6562,-7.4701 -2.6562,-12.25 0,-8.962 3.2435,-15.92712 9.75,-20.90625 6.7035,-5.17797 15.4684,-7.78115 26.3124,-7.78125 9.0695,1e-4 17.1521,1.70828 24.25,5.09375 7.295,3.18673 13.8975,7.66203 19.8126,13.4375 l 13.3124,-16.125 c -6.9008,-7.1696 -15.2668,-12.93077 -25.125,-17.3125 -9.8583,-4.58047 -20.6173,-6.8747 -32.25,-6.875 z m 940.4063,0 c -8.8724,3e-4 -17.0703,1.28607 -24.5625,3.875 -7.2951,2.58923 -13.6982,6.2829 -19.2188,11.0625 -5.3234,4.58076 -9.5641,10.03329 -12.7187,16.40625 -2.9575,6.37326 -4.4375,13.25627 -4.4375,20.625 0,7.16979 1.1964,13.54867 3.5625,19.125 2.3659,5.3774 5.41,10.04818 9.1563,14.03125 3.746,3.98336 7.9868,7.36818 12.7187,10.15625 4.7319,2.78836 9.3715,5.19597 13.9063,7.1875 l 27.7812,12.25 c 4.5347,2.19086 8.7754,4.25847 12.7188,6.25 3.9431,1.99163 7.302,4.28607 10.0624,6.875 2.9574,2.39 5.2351,5.38395 6.8126,8.96875 1.7743,3.38576 2.6561,7.55232 2.6562,12.53125 -1e-4,9.55969 -3.5585,17.3378 -10.6562,23.3125 -7.0981,5.77566 -17.0595,8.65635 -29.875,8.65625 -10.0555,10e-5 -19.8175,-2.18097 -29.2813,-6.5625 -9.2668,-4.58066 -17.3492,-10.56857 -24.25,-17.9375 l -14.7813,17.34375 c 8.478,8.96219 18.5235,16.04069 30.1563,21.21875 11.6327,5.17816 24.2706,7.75 37.875,7.75 10.2525,0 19.4162,-1.39924 27.5,-4.1875 8.0836,-2.9874 14.9696,-6.95857 20.6875,-11.9375 5.7176,-5.17816 10.0737,-11.16607 13.0312,-17.9375 3.1546,-6.77143 4.7187,-14.01396 4.7188,-21.78125 -1e-4,-7.1696 -1.0814,-13.46635 -3.25,-18.84375 -1.9718,-5.57633 -4.7325,-10.36049 -8.2812,-14.34375 -3.5491,-4.1823 -7.7898,-7.7625 -12.7188,-10.75 -4.9293,-3.18643 -10.1358,-5.95375 -15.6562,-8.34375 l -27.5313,-11.96875 c -3.9434,-1.59317 -7.7852,-3.2699 -11.5313,-5.0625 -3.7461,-1.99143 -7.1892,-4.20375 -10.3437,-6.59375 -3.1547,-2.58893 -5.7159,-5.46952 -7.6875,-8.65625 -1.7745,-3.38557 -2.6562,-7.4701 -2.6562,-12.25 0,-8.962 3.2435,-15.92712 9.75,-20.90625 6.7035,-5.17797 15.4996,-7.78115 26.3437,-7.78125 9.0695,1e-4 17.152,1.70828 24.25,5.09375 7.2949,3.18673 13.8974,7.66203 19.8125,13.4375 l 13.3125,-16.125 c -6.9009,-7.1696 -15.2981,-12.93077 -25.1563,-17.3125 -9.8583,-4.58047 -20.586,-6.8747 -32.2187,-6.875 z m 400.6875,0 c -11.3447,0.26863 -21.8258,2.58081 -31.4375,6.875 -10.0555,4.58086 -18.7362,11.23724 -26.0313,20 -7.2951,8.56403 -13.0158,19.10936 -17.1562,31.65625 -3.9434,12.34796 -5.9062,26.39157 -5.9062,42.125 -1e-4,15.73362 1.9628,29.97272 5.9062,42.71875 4.1404,12.54709 9.8611,23.31915 17.1562,32.28125 7.2951,8.76296 15.9758,15.5327 26.0313,20.3125 10.2525,4.7798 21.4632,7.15625 33.6875,7.15625 12.2241,0 23.382,-2.37645 33.4375,-7.15625 10.2524,-4.7798 19.0173,-11.54954 26.3125,-20.3125 7.4921,-8.9621 13.2128,-19.73416 17.1562,-32.28125 4.1404,-12.74603 6.2186,-26.98513 6.2188,-42.71875 -2e-4,-15.53429 -2.0784,-29.46444 -6.2188,-41.8125 -3.9434,-12.5468 -9.6641,-23.09232 -17.1562,-31.65625 -7.2952,-8.76286 -16.0601,-15.45039 -26.3125,-20.03125 -10.0555,-4.7796 -21.2134,-7.15595 -33.4375,-7.15625 -0.764,2e-5 -1.4937,-0.0179 -2.25,0 z m 959.5625,0 c -13.0129,3e-4 -24.9373,2.37665 -35.7813,7.15625 -10.8441,4.58086 -20.3225,11.26839 -28.4062,20.03125 -7.8866,8.76316 -14.0902,19.39061 -18.625,31.9375 -4.3376,12.54709 -6.5,26.70407 -6.5,42.4375 0,15.93286 2.1624,30.25387 6.5,43 4.3376,12.54709 10.3417,23.20579 18.0312,31.96875 7.6894,8.56383 16.8531,15.13809 27.5,19.71875 10.6468,4.58066 22.3718,6.875 35.1876,6.875 13.0127,0 24.6535,-2.09885 34.9062,-6.28125 10.4496,-4.38143 18.8468,-9.83395 25.1562,-16.40625 l 0,-82.46875 -63.5937,0 0,20.625 41.0937,0 0,51.09375 c -3.9433,3.5849 -9.0658,6.46558 -15.375,8.65625 -6.1121,1.99163 -12.5993,2.96885 -19.5,2.96875 -10.4498,10e-5 -19.7289,-1.87222 -27.8124,-5.65625 -7.8867,-3.78403 -14.6046,-9.18559 -20.125,-16.15625 -5.3236,-6.97046 -9.4488,-15.33492 -12.4063,-25.09375 -2.7603,-9.95786 -4.1563,-21.08954 -4.1563,-33.4375 0,-12.14863 1.48,-23.11607 4.4376,-32.875 3.1545,-9.75863 7.5105,-18.00962 13.0312,-24.78125 5.5205,-6.97037 12.2071,-12.25875 20.0938,-15.84375 7.8864,-3.78383 16.7666,-5.6874 26.625,-5.6875 9.858,1e-4 17.9406,1.82155 24.25,5.40625 6.5062,3.38586 12.227,7.66578 17.1562,12.84375 l 13.9062,-15.84375 c -5.7179,-5.9746 -13.1181,-11.45837 -22.1874,-16.4375 -8.8726,-5.17797 -19.9993,-7.7497 -33.4063,-7.75 z m 429.0937,0 c -12.4214,3e-4 -23.9469,2.37665 -34.5937,7.15625 -10.4497,4.58086 -19.5294,11.26839 -27.2187,20.03125 -7.6896,8.76316 -13.6937,19.39061 -18.0313,31.9375 -4.3376,12.54709 -6.5001,26.70407 -6.5,42.4375 -1e-4,15.93286 2.047,30.25387 6.1875,43 4.3376,12.54709 10.2577,23.20579 17.75,31.96875 7.6893,8.56383 16.6536,15.13809 26.9062,19.71875 10.4497,4.58066 21.807,6.875 34.0313,6.875 12.4212,0 23.4639,-2.48982 33.125,-7.46875 9.6609,-4.97893 18.3417,-11.94406 26.0313,-20.90625 l -13.9063,-15.25 c -6.3093,6.97066 -13.0272,12.37222 -20.125,16.15625 -6.9009,3.78403 -15.0675,5.65635 -24.5313,5.65625 -9.2668,10e-5 -17.664,-1.87222 -25.1562,-5.65625 -7.2951,-3.78403 -13.4988,-9.18559 -18.625,-16.15625 -5.1263,-6.97046 -9.1675,-15.33492 -12.125,-25.09375 -2.7603,-9.95786 -4.1251,-21.08954 -4.125,-33.4375 -1e-4,-12.14863 1.4799,-23.11607 4.4375,-32.875 2.9574,-9.75863 7.0827,-18.00962 12.4063,-24.78125 5.3233,-6.97037 11.7263,-12.25875 19.2187,-15.84375 7.4922,-3.78383 15.8894,-5.6874 25.1563,-5.6875 8.2807,1e-4 15.4502,1.70828 21.5624,5.09375 6.3092,3.18673 12.0299,7.58002 17.1563,13.15625 l 13.9063,-15.84375 c -5.718,-6.37296 -13.0028,-11.93876 -21.875,-16.71875 -8.8726,-4.97873 -19.2328,-7.46845 -31.0626,-7.46875 z m -3351.1562,3.5625 0,115.03125 c 0,15.73362 1.7635,28.96416 5.3125,39.71875 3.549,10.75459 8.3879,19.50982 14.5,26.28125 6.3092,6.5722 13.7093,11.35635 22.1875,14.34375 8.6752,2.78826 17.923,4.1875 27.7812,4.1875 9.8582,0 19.0219,-1.39924 27.5,-4.1875 8.478,-2.9874 15.794,-7.77155 21.9063,-14.34375 6.309,-6.77143 11.2322,-15.52666 14.7813,-26.28125 3.5487,-10.75459 5.3123,-23.98513 5.3124,-39.71875 l 0,-115.03125 -23.6562,0 0,115.625 c -10e-5,11.75046 -1.1654,21.59627 -3.5312,29.5625 -2.3661,7.96643 -5.641,14.3452 -9.7813,19.125 -4.1406,4.7798 -8.9483,8.27808 -14.4687,10.46875 -5.5208,1.99163 -11.5562,2.96885 -18.0626,2.96875 -6.3093,10e-5 -12.2294,-0.97712 -17.75,-2.96875 -5.5206,-2.19067 -10.3283,-5.68895 -14.4687,-10.46875 -3.9433,-4.7798 -7.1029,-11.15857 -9.4687,-19.125 -2.3661,-7.96623 -3.5626,-17.81204 -3.5626,-29.5625 l 0,-115.625 -24.5312,0 z m 173.1562,0 0,20.9375 58.5626,0 0,175.03125 24.8437,0 0,-175.03125 58.5625,0 0,-20.9375 -141.9688,0 z m 176.625,0 0,195.96875 24.5313,0 0,-195.96875 -24.5313,0 z m 77.9688,0 0,195.96875 109.4375,0 0,-21.1875 -84.9063,0 0,-174.78125 -24.5312,0 z m 354.6562,0 0,195.96875 109.4376,0 0,-21.1875 -84.875,0 0,-174.78125 -24.5626,0 z m 143.8438,0 0,195.96875 24.5312,0 0,-195.96875 -24.5312,0 z m 77.9688,0 0,195.96875 61.8124,0 c 10.844,0 20.8054,-1.1726 29.875,-3.5625 9.0695,-2.3899 16.8685,-5.9701 23.375,-10.75 6.5063,-4.7798 11.5135,-10.76771 15.0626,-17.9375 3.5487,-7.1697 5.3436,-15.53406 5.3437,-25.09375 -1e-4,-13.54276 -3.9573,-24.20155 -11.8437,-31.96875 -7.8868,-7.7671 -18.9294,-12.74664 -33.125,-14.9375 l 0,-1.1875 c 11.4353,-2.9873 19.9167,-8.35771 25.4374,-16.125 5.5205,-7.96623 8.2811,-16.83482 8.2813,-26.59375 -2e-4,-8.56373 -1.6796,-15.83761 -5.0313,-21.8125 -3.1547,-6.17383 -7.6788,-11.15327 -13.5937,-14.9375 -5.7178,-3.78383 -12.7192,-6.5824 -21,-8.375 -8.0839,-1.7923 -17.0481,-2.6873 -26.9063,-2.6875 l -57.6874,0 z m 173.875,0 0,195.96875 24.5312,0 0,-82.75 35.2188,0 46.7187,82.75 27.7813,0 -49.0938,-85.4375 c 13.2099,-3.38567 23.7695,-9.65107 31.6562,-18.8125 7.8864,-9.16113 11.8436,-21.41464 11.8438,-36.75 -2e-4,-10.157 -1.6796,-18.71684 -5.0312,-25.6875 -3.3519,-6.97037 -8.1069,-12.64962 -14.2188,-17.03125 -5.9151,-4.38133 -13.0845,-7.4574 -21.5625,-9.25 -8.281,-1.99143 -17.3606,-2.9998 -27.2187,-3 l -60.625,0 z m 171.5624,0 0,195.96875 114.75,0 0,-21.1875 -90.2187,0 0,-71.09375 73.6563,0 0,-21.21875 -73.6563,0 0,-61.53125 87.25,0 0,-20.9375 -111.7813,0 z m 373.125,0 0,195.96875 24.5626,0 0,-77.65625 34.9062,0 c 10.6468,0 20.2935,-1.20375 28.9688,-3.59375 8.8723,-2.58893 16.4719,-6.36462 22.7812,-11.34375 6.3091,-4.97883 11.148,-11.24434 14.5,-18.8125 3.5488,-7.56786 5.3123,-16.54983 5.3125,-26.90625 -2e-4,-10.7544 -1.7637,-19.81837 -5.3125,-27.1875 -3.352,-7.36863 -8.1909,-13.24337 -14.5,-17.625 -6.1122,-4.58047 -13.5965,-7.85202 -22.4688,-9.84375 -8.8725,-1.99143 -18.6344,-2.9998 -29.2812,-3 l -59.4688,0 z m 365.9063,0 0,115.03125 c 0,15.73362 1.7948,28.96416 5.3437,39.71875 3.5489,10.75459 8.3879,19.50982 14.5,26.28125 6.3093,6.5722 13.6781,11.35635 22.1563,14.34375 8.6751,2.78826 17.9542,4.1875 27.8125,4.1875 9.8581,0 19.0218,-1.39924 27.5,-4.1875 8.4779,-2.9874 15.7628,-7.77155 21.875,-14.34375 6.3091,-6.77143 11.2633,-15.52666 14.8125,-26.28125 3.5488,-10.75459 5.3124,-23.98513 5.3125,-39.71875 l 0,-115.03125 -23.6562,0 0,115.625 c -2e-4,11.75046 -1.1967,21.59627 -3.5626,29.5625 -2.366,7.96643 -5.6096,14.3452 -9.75,19.125 -4.1405,4.7798 -8.9795,8.27808 -14.5,10.46875 -5.5206,1.99163 -11.5249,2.96885 -18.0312,2.96875 -6.3093,10e-5 -12.2295,-0.97712 -17.75,-2.96875 -5.5207,-2.19067 -10.3596,-5.68895 -14.5,-10.46875 -3.9434,-4.7798 -7.0716,-11.15857 -9.4375,-19.125 -2.3661,-7.96623 -3.5626,-17.81204 -3.5625,-29.5625 l 0,-115.625 -24.5625,0 z m 191.5313,0 0,195.96875 24.5312,0 0,-82.75 35.1875,0 46.75,82.75 27.7813,0 -49.0938,-85.4375 c 13.2099,-3.38567 23.7696,-9.65107 31.6562,-18.8125 7.8865,-9.16113 11.8124,-21.41464 11.8126,-36.75 -2e-4,-10.157 -1.6484,-18.71684 -5,-25.6875 -3.352,-6.97037 -8.1069,-12.64962 -14.2188,-17.03125 -5.9151,-4.38133 -13.1158,-7.4574 -21.5938,-9.25 -8.281,-1.99143 -17.3293,-2.9998 -27.1874,-3 l -60.625,0 z m 231.0312,0 0,195.96875 109.4375,0 0,-21.1875 -84.875,0 0,-174.78125 -24.5625,0 z m 214.375,0 -65.6562,195.96875 25.1562,0 18.625,-59.71875 70.6875,0 18.3125,59.71875 26.3438,0 -65.6563,-195.96875 -27.8125,0 z m 300.875,0 0,195.96875 24.5625,0 0,-82.75 35.1875,0 46.7188,82.75 27.8124,0 -49.0937,-85.4375 c 13.2099,-3.38567 23.7383,-9.65107 31.625,-18.8125 7.8864,-9.16113 11.8437,-21.41464 11.8437,-36.75 0,-10.157 -1.6795,-18.71684 -5.0312,-25.6875 -3.352,-6.97037 -8.0755,-12.64962 -14.1875,-17.03125 -5.9151,-4.38133 -13.1158,-7.4574 -21.5937,-9.25 -8.2811,-1.99143 -17.3607,-2.9998 -27.2188,-3 l -60.625,0 z m 171.5625,0 0,195.96875 24.5313,0 0,-195.96875 -24.5313,0 z m 241.7187,0 0,115.03125 c 10e-5,15.73362 1.7636,28.96416 5.3126,39.71875 3.5488,10.75459 8.3879,19.50982 14.5,26.28125 6.3092,6.5722 13.7093,11.35635 22.1874,14.34375 8.6752,2.78826 17.923,4.1875 27.7813,4.1875 9.8581,0 19.0531,-1.39924 27.5313,-4.1875 8.4779,-2.9874 15.7628,-7.77155 21.875,-14.34375 6.3091,-6.77143 11.232,-15.52666 14.7812,-26.28125 3.5488,-10.75459 5.3123,-23.98513 5.3125,-39.71875 l 0,-115.03125 -23.6563,0 0,115.625 c -1e-4,11.75046 -1.1653,21.59627 -3.5312,29.5625 -2.3661,7.96643 -5.6409,14.3452 -9.7812,19.125 -4.1406,4.7798 -8.9483,8.27808 -14.4688,10.46875 -5.5208,1.99163 -11.5562,2.96885 -18.0625,2.96875 -6.3093,10e-5 -12.1983,-0.97712 -17.7187,-2.96875 -5.5207,-2.19067 -10.3596,-5.68895 -14.5,-10.46875 -3.9434,-4.7798 -7.1029,-11.15857 -9.4688,-19.125 -2.3661,-7.96623 -3.5625,-17.81204 -3.5625,-29.5625 l 0,-115.625 -24.5313,0 z m 191.5,0 0,195.96875 109.4376,0 0,-21.1875 -84.875,0 0,-174.78125 -24.5626,0 z m 90.25,0 0,20.9375 58.5626,0 0,175.03125 24.8437,0 0,-175.03125 58.5625,0 0,-20.9375 -141.9688,0 z m 175.7188,0 0,115.03125 c 0,15.73362 1.7948,28.96416 5.3438,39.71875 3.5489,10.75459 8.3566,19.50982 14.4687,26.28125 6.3092,6.5722 13.7093,11.35635 22.1875,14.34375 8.6752,2.78826 17.9543,4.1875 27.8125,4.1875 9.8581,0 19.0218,-1.39924 27.5,-4.1875 8.478,-2.9874 15.7627,-7.77155 21.875,-14.34375 6.309,-6.77143 11.2634,-15.52666 14.8125,-26.28125 3.5488,-10.75459 5.3123,-23.98513 5.3125,-39.71875 l 0,-115.03125 -23.6563,0 0,115.625 c 0,11.75046 -1.1966,21.59627 -3.5624,29.5625 -2.3661,7.96643 -5.6097,14.3452 -9.75,19.125 -4.1407,4.7798 -8.9796,8.27808 -14.5,10.46875 -5.5207,1.99163 -11.5249,2.96885 -18.0313,2.96875 -6.3093,10e-5 -12.2294,-0.97712 -17.75,-2.96875 -5.5207,-2.19067 -10.3596,-5.68895 -14.5,-10.46875 -3.9433,-4.7798 -7.1028,-11.15857 -9.4687,-19.125 -2.3661,-7.96623 -3.5313,-17.81204 -3.5313,-29.5625 l 0,-115.625 -24.5625,0 z m 191.5312,0 0,195.96875 24.5313,0 0,-82.75 35.1875,0 46.75,82.75 27.7812,0 -49.0937,-85.4375 c 13.2099,-3.38567 23.7695,-9.65107 31.6563,-18.8125 7.8864,-9.16113 11.8124,-21.41464 11.8124,-36.75 0,-10.157 -1.6795,-18.71684 -5.0312,-25.6875 -3.352,-6.97037 -8.0755,-12.64962 -14.1875,-17.03125 -5.9151,-4.38133 -13.1158,-7.4574 -21.5937,-9.25 -8.2811,-1.99143 -17.3294,-2.9998 -27.1876,-3 l -60.625,0 z m 171.5313,0 0,195.96875 114.75,0 0,-21.1875 -90.1875,0 0,-71.09375 73.625,0 0,-21.21875 -73.625,0 0,-61.53125 87.25,0 0,-20.9375 -111.8125,0 z m -4384.25,18.21875 c 8.6751,1e-4 16.4429,1.90367 23.3437,5.6875 7.0978,3.585 13.1333,8.76002 18.0626,15.53125 5.1261,6.77153 9.052,15.05387 11.8124,24.8125 2.7602,9.75893 4.1562,20.69522 4.1563,32.84375 -10e-5,12.34796 -1.3961,23.51089 -4.1563,33.46875 -2.7604,9.75893 -6.6863,18.2053 -11.8124,25.375 -4.9293,6.97066 -10.9648,12.37222 -18.0626,16.15625 -6.9008,3.78403 -14.6686,5.65635 -23.3437,5.65625 -8.6753,10e-5 -16.5584,-1.87222 -23.6563,-5.65625 -6.9008,-3.78403 -12.9362,-9.18559 -18.0624,-16.15625 -4.9292,-7.1697 -8.771,-15.61607 -11.5313,-25.375 -2.7603,-9.95786 -4.125,-21.12079 -4.125,-33.46875 0,-12.14853 1.3647,-23.08482 4.125,-32.84375 2.7603,-9.75863 6.6021,-18.04097 11.5313,-24.8125 5.1262,-6.77123 11.1616,-11.94625 18.0624,-15.53125 7.0979,-3.78383 14.981,-5.6874 23.6563,-5.6875 z m 2088.6875,0 c 8.6751,1e-4 16.4741,1.90367 23.375,5.6875 7.0978,3.585 13.102,8.76002 18.0312,15.53125 5.1262,6.77153 9.0834,15.05387 11.8438,24.8125 2.7601,9.75893 4.1248,20.69522 4.125,32.84375 -2e-4,12.34796 -1.3649,23.51089 -4.125,33.46875 -2.7604,9.75893 -6.7176,18.2053 -11.8438,25.375 -4.9292,6.97066 -10.9334,12.37222 -18.0312,16.15625 -6.9009,3.78403 -14.6999,5.65635 -23.375,5.65625 -8.6753,10e-5 -16.5585,-1.87222 -23.6562,-5.65625 -6.9009,-3.78403 -12.9051,-9.18559 -18.0313,-16.15625 -4.9292,-7.1697 -8.771,-15.61607 -11.5313,-25.375 -2.7603,-9.95786 -4.125,-21.12079 -4.125,-33.46875 1e-4,-12.14853 1.3647,-23.08482 4.125,-32.84375 2.7603,-9.75863 6.6021,-18.04097 11.5313,-24.8125 5.1262,-6.77123 11.1304,-11.94625 18.0313,-15.53125 7.0977,-3.78383 14.9809,-5.6874 23.6562,-5.6875 z m -935.9688,1.5 29.8438,0 c 15.1816,1e-4 26.5389,2.4078 34.0312,7.1875 7.6894,4.58076 11.5312,12.2456 11.5313,23 -1e-4,10.95392 -3.6426,19.31828 -10.9375,25.09375 -7.0981,5.77566 -19.0224,8.65635 -35.7812,8.65625 l -28.6876,0 0,-63.9375 z m 173.8438,0.3125 32.5312,0 c 15.1815,2e-4 26.8225,2.57203 34.9063,7.75 8.0836,5.17826 12.1249,14.24234 12.125,27.1875 -1e-4,12.74632 -4.0414,22.31454 -12.125,28.6875 -8.0838,6.17403 -19.7248,9.2501 -34.9063,9.25 l -32.5312,0 0,-72.875 z m 544.7188,0 31.9374,0 c 16.7589,2e-4 29.2815,2.79867 37.5626,8.375 8.2807,5.3774 12.4061,15.10994 12.4062,29.25 -1e-4,13.94132 -4.1255,24.20915 -12.4062,30.78125 -8.0839,6.37316 -20.6065,9.5626 -37.5626,9.5625 l -31.9374,0 0,-77.96875 z m 557.4062,0 32.5312,0 c 15.1815,2e-4 26.8224,2.57203 34.9063,7.75 8.0836,5.17826 12.1249,14.24234 12.125,27.1875 -1e-4,12.74632 -4.0414,22.31454 -12.125,28.6875 -8.0839,6.17403 -19.7248,9.2501 -34.9063,9.25 l -32.5312,0 0,-72.875 z m 746.3125,0 32.5313,0 c 15.1815,2e-4 26.7911,2.57203 34.875,7.75 8.0835,5.17826 12.1249,14.24234 12.125,27.1875 -10e-5,12.74632 -4.0415,22.31454 -12.125,28.6875 -8.0839,6.17403 -19.6935,9.2501 -34.875,9.25 l -32.5313,0 0,-72.875 z m 1062.25,0 32.5313,0 c 15.1815,2e-4 26.8223,2.57203 34.9062,7.75 8.0836,5.17826 12.1249,14.24234 12.125,27.1875 -1e-4,12.74632 -4.0414,22.31454 -12.125,28.6875 -8.0839,6.17403 -19.7247,9.2501 -34.9062,9.25 l -32.5313,0 0,-72.875 z M 4471.7188,139.5 l 1.1874,0 c 3.1546,11.35229 6.3141,22.51522 9.4688,33.46875 3.1546,10.75479 6.5135,21.60897 10.0625,32.5625 l 9.1563,29.875 -58.25,0 9.1562,-29.875 c 3.5489,-10.95353 6.9078,-21.80771 10.0625,-32.5625 3.1545,-10.95353 6.1987,-22.11646 9.1563,-33.46875 z m -1709.5626,81.875 33.7188,0 c 17.1532,1e-4 30.2428,2.88078 39.3125,8.65625 9.0694,5.57653 13.6248,14.44512 13.625,26.59375 -2e-4,13.34372 -4.6397,23.18954 -13.9063,29.5625 -9.2669,6.17403 -22.2723,9.28135 -39.0312,9.28125 l -33.7188,0 0,-74.09375 z"
           style="line-height:125%;fill:#5f5f5f;font-family:Source Sans Pro;-inkscape-font-specification:Source Sans Pro" />
      </g>
    </g>
  </g>
</svg>
